<svg width="625" height="450.00000000000006" xmlns="http://www.w3.org/2000/svg">
 <title>work time</title>

 <g>
  <title>background</title>
  <rect fill="none" id="canvas_background" height="452" width="627" y="-1" x="-1"/>
 </g>
 <g>
  <title>Layer 1</title>
  <g stroke="null" id="svg_336">
   <g stroke="null" transform="matrix(0.9386223951167251,0,0,0.9386223951167251,-7308.21608851288,-6312.963547680413) " id="svg_334">
    <title stroke="null" transform="translate(0,1.5219874382019043) translate(3.0439748764038086,0) translate(0,-7.6099371910095215) translate(-147.6327667236328,-94.36322021484375) translate(0,-4.565962314605713) translate(12.175899505615234,-24.35179901123047) translate(39.57167053222656,-86.75328063964844) translate(-144.68540954589844,358.18463134765625) translate(8040.53271484375,0) translate(0,6573.79638671875) ">background</title>
    <rect stroke="null" x="7802.006083" y="6714.858806" width="582" height="402" id="svg_332" fill="none"/>
   </g>
   <g stroke="null" transform="matrix(0.9386223951167251,0,0,0.9386223951167251,-7308.21608851288,-6312.963547680413) " id="svg_335">
    <title stroke="null" transform="translate(0,1.5219874382019043) translate(3.0439748764038086,0) translate(0,-7.6099371910095215) translate(-147.6327667236328,-94.36322021484375) translate(0,-4.565962314605713) translate(12.175899505615234,-24.35179901123047) translate(39.57167053222656,-86.75328063964844) translate(-144.68540954589844,358.18463134765625) translate(8040.53271484375,0) translate(0,6573.79638671875) ">Layer 1</title>
    <g stroke="null" id="svg_302">
     <g stroke="null" id="svg_330" transform="matrix(0.6675645169981864,0,0,0.7248958210661784,-10528.419324212504,-5964.254493419321) ">
      <title stroke="null" transform="translate(0,2.099594831466675) translate(4.559821128845215,1.8189894035458565e-12) translate(0,-10.497973442077637) translate(-221.15130615234375,-130.17486572265625) translate(0,-6.298784255981445) translate(18.23928451538086,-33.5935173034668) translate(59.277671813964844,-119.67689514160156) translate(-216.73622131347656,494.1187744140625) translate(12044.578125,1.8189894035458565e-12) translate(0,9068.6083984375) ">background</title>
      <rect stroke="null" fill="none" id="svg_331" height="402" width="582" y="17494.256294" x="27822.341589"/>
     </g>
     <g stroke="null" id="svg_303" transform="matrix(0.6675645169981864,0,0,0.7248958210661784,-10528.419324212504,-5964.254493419321) ">
      <title stroke="null" transform="translate(0,2.099594831466675) translate(4.559821128845215,1.8189894035458565e-12) translate(0,-10.497973442077637) translate(-221.15130615234375,-130.17486572265625) translate(0,-6.298784255981445) translate(18.23928451538086,-33.5935173034668) translate(59.277671813964844,-119.67689514160156) translate(-216.73622131347656,494.1187744140625) translate(12044.578125,1.8189894035458565e-12) translate(0,9068.6083984375) ">Layer 1</title>
      <circle stroke="null" id="svg_329" fill="#2f2e41" r="30.99674" cy="17556.387434" cx="28257.364749"/>
      <path stroke="null" id="svg_328" fill="#2f2e41" d="m28162.956369,17929.563924l19.04375,-66.04535l6.483,2.02593s-7.69854,49.43272 -19.85412,61.99349l-5.67263,2.02593z"/>
      <path stroke="null" id="svg_327" fill="#ffb9b9" d="m28235.484699,17575.026014s2.43112,25.93191 -3.24149,33.22527s3.64667,21.47486 3.64667,21.47486l17.01782,20.25931l25.12155,-11.34521l3.64667,-21.06968l-2.43111,-14.58671s-8.50891,-8.50891 -4.86224,-23.906s-38.89787,-4.05184 -38.89787,-4.05184z"/>
      <path stroke="null" id="svg_326" opacity="0.1" d="m28235.484699,17575.026014s2.43112,25.93191 -3.24149,33.22527s3.64667,21.47486 3.64667,21.47486l17.01782,20.25931l25.12155,-11.34521l3.64667,-21.06968l-2.43111,-14.58671s-8.50891,-8.50891 -4.86224,-23.906s-38.89787,-4.05184 -38.89787,-4.05184z"/>
      <polygon stroke="null" id="svg_325" fill="#ffb9b9" points="28250.076171875,18060.033188581467 28250.076171875,18076.644516706467 28272.359375,18081.101547956467 28270.333984375,18053.548813581467 28250.076171875,18060.033188581467 "/>
      <polygon stroke="null" id="svg_324" fill="#ffb9b9" points="28316.931640625,18053.548813581467 28312.068359375,18076.644516706467 28321.79296875,18083.533188581467 28338.810546875,18070.972641706467 28336.78515625,18051.117172956467 28316.931640625,18053.548813581467 "/>
      <path stroke="null" id="svg_323" fill="#2f2e41" d="m28274.382589,18079.077634s-8.50891,-14.38252 -24.31117,-5.36792c0,0 -2.8363,15.90276 -5.67261,17.11832s-18.63856,24.31117 0,26.3371s27.95785,-4.05186 27.95785,-4.05186s-3.64667,3.13776 2.02593,1.517s3.24149,-10.53484 3.24149,-10.53484l-3.24149,-25.0178z"/>
      <path stroke="null" id="svg_322" fill="#2f2e41" d="m28329.893079,18069.353164s-12.56077,8.91409 -14.5867,4.86223s-5.26742,-3.64667 -5.26742,-3.64667s-11.34522,42.76822 -4.05186,44.79415a24.58356,24.58356 0 0 0 14.18149,-0.73253s9.72447,-6.81038 9.72447,-1.543s27.14748,4.88816 38.49269,4.483s5.26742,-8.91409 5.26742,-8.91409l-14.99189,-14.5867l-17.01782,-24.71636s-7.69852,-6.8882 -11.75038,-0.00003z"/>
      <path stroke="null" id="svg_321" fill="#2f2e41" d="m28210.363149,17798.283604l17.01782,163.29s9.31929,99.6758 10.94,101.29655s12.15559,6.88816 35.2512,0l-5.26742,-130.46995l9.72447,-81.03724l22.28524,55.91569s5.26742,150.32408 8.91409,150.32408s25.93192,7.29335 31.19934,-1.62075s4.45705,-104.94322 4.45705,-104.94322s-2.43112,-151.53963 -20.25931,-156.40187s-114.26248,3.64671 -114.26248,3.64671z"/>
      <circle stroke="null" id="svg_320" fill="#ffb9b9" r="27.95785" cy="17562.060044" cx="28257.364749"/>
      <path stroke="null" id="svg_319" fill="#575a89" d="m28258.985499,17639.855804s-2.83631,-17.423 -2.83631,-20.6645s-12.56077,-5.26742 -12.56077,-5.26742s-9.72447,-10.94 -11.7504,-9.31928s-32.82008,22.28524 -37.68231,25.12154s-10.12966,14.99189 -9.72447,15.80226s25.52673,53.48458 25.52673,53.48458s10.94,32.4149 3.24149,49.43272s-17.423,50.64827 -3.24149,57.53644s83.06317,21.88 95.62394,8.91409s21.47487,-16.61263 24.71636,-16.61263s-13.37115,-56.32088 -9.72447,-61.5883s-1.62075,-38.0875 -1.62075,-38.0875l18.63857,-52.269s-1.62075,-29.17341 -38.49269,-35.65639l-22.05834,-10.69507l-18.05509,39.86846z"/>
      <path stroke="null" id="svg_318" fill="#ffb9b9" d="m28183.215679,17805.576954s-2.02593,19.44894 -2.02593,25.12154s-9.72447,38.89788 4.457,42.94974s12.966,-44.1653 12.966,-44.1653l0,-24.71635l-15.39707,0.81037z"/>
      <path stroke="null" id="svg_317" fill="#ffb9b9" d="m28351.367949,17787.343574s2.43112,18.63857 1.21556,22.69043s11.7504,39.30306 -5.67261,41.329s-12.966,-42.13937 -12.966,-42.13937l0,-21.88l17.42305,-0.00006z"/>
      <path stroke="null" id="svg_316" fill="#2f2e41" d="m28179.568999,17923.080944l11.7504,-62.39867l3.64668,0a24.5429,24.5429 0 0 1 3.64668,23.5008c-4.86224,13.77633 -8.9141,38.89787 -8.9141,38.89787l-10.12966,0z"/>
      <path stroke="null" id="svg_315" fill="#575a89" d="m28190.509029,17640.666174l-6.07779,4.86223s-8.10372,128.84921 -6.07779,138.57368s-7.29336,23.5008 0.81037,24.71636s17.82819,6.483 22.28524,3.24149s5.26742,-14.99189 6.88816,-17.82819s4.457,-36.46676 4.457,-36.46676s8.50891,-33.63045 3.24149,-58.752s-10.12965,-50.64827 -10.12965,-50.64827l-15.39703,-7.69854z"/>
      <path stroke="null" id="svg_314" fill="#575a89" d="m28318.953049,17630.536524l18.63854,15.80226l14.18151,82.658s8.9141,64.4246 2.02594,65.235s-17.423,-1.21556 -21.88006,0s-8.10372,-2.02594 -8.10372,-2.02594s-4.86224,-25.93191 -4.86224,-26.3371s-3.24143,-29.98382 -3.24143,-29.98382l-4.05186,-33.22526l6.07779,-36.46676l1.21553,-35.65638z"/>
      <path stroke="null" id="svg_313" fill="#3f3d56" d="m28231.027649,18013.032284s-2.63371,7.56482 -6.26416,17.86464c-1.68559,4.78931 -3.58594,10.17425 -5.543,15.66451c-1.26012,3.54944 -2.54048,7.14344 -3.80065,10.65234c-2.00971,5.61184 -3.96273,11.00082 -5.66855,15.628c-2.25286,6.10616 -4.08025,10.89141 -5.06077,13.124c-4.457,10.12966 -85.89947,-6.07779 -92.38245,-10.12965s-8.10373,-17.8282 -8.9141,-37.27713c-0.00405,-0.1013 -0.00811,-0.2026 -0.00811,-0.30389c-0.10535,-3.92626 0.89545,-9.77309 2.56892,-16.63289c0.83465,-3.42788 1.83951,-7.107 2.95783,-10.92788c1.49921,-5.12562 3.201,-10.49837 4.9797,-15.84683c7.64185,-22.97406 16.64914,-45.42947 16.64914,-45.42947s15.80226,-10.94 21.47486,-18.23338s36.872,-12.966 36.872,-12.966c8.91409,0.40519 29.1734,34.846 37.27713,45.38085s4.86221,49.43278 4.86221,49.43278z"/>
      <circle stroke="null" id="svg_312" fill="#2f2e41" r="3.64668" cy="17947.797294" cx="28185.646799"/>
      <circle stroke="null" id="svg_311" fill="#2f2e41" r="2.02593" cy="17951.849154" cx="28191.319399"/>
      <path stroke="null" id="svg_310" fill="#f2f2f2" d="m28224.763489,18030.896924c-1.68559,4.78931 -3.58594,10.17425 -5.543,15.66451l-110.30785,-35.86709c1.49921,-5.12562 3.201,-10.49837 4.9797,-15.84683l110.87115,36.04941z"/>
      <path stroke="null" id="svg_309" fill="#f2f2f2" d="m28215.419869,18057.213774c-2.00971,5.61184 -3.96273,11.00082 -5.66855,15.628l-106.36543,-34.58665c-0.10535,-3.92626 0.89545,-9.77309 2.56892,-16.63289l109.46506,35.59154z"/>
      <path stroke="#2f2e41" id="svg_308" stroke-width="3" stroke-miterlimit="10" fill="none" d="m28185.646799,17948.607674s8.10372,35.65639 3.24149,67.26091s12.15558,61.18312 12.15558,61.18312"/>
      <path stroke="#2f2e41" id="svg_307" stroke-width="3" stroke-miterlimit="10" fill="none" d="m28191.319399,17951.443984s-15.80226,57.53644 -16.20744,65.64016s-6.88817,66.04535 -14.99189,72.12314"/>
      <path stroke="null" id="svg_306" fill="#2f2e41" d="m28235.901059,17544.999554s-6.32846,-16.454 2.84781,-21.83318l2.53138,7.27773s23.09887,-13.92261 29.1109,-10.75838l-5.69561,7.59415s26.89594,0 28.79448,10.442l-9.49269,0.31642s10.12554,6.64488 10.442,17.40326l-20.25106,1.26569l9.8091,5.69561s-36.705,5.06276 -45.56489,-9.49269l-2.53142,-7.91061z"/>
      <path stroke="null" id="svg_305" fill="#2f2e41" d="m28230.419869,17545.650014s7.29335,14.5867 17.01782,10.94s0,-17.01782 0,-17.01782l-6.483,-3.24149l-10.53482,9.31931z"/>
      <rect stroke="null" id="svg_304" fill="#6c63ff" transform="rotate(-49.170440673828125 28242.212890625,18839.841796875) " height="45.02318" width="17.448" y="18817.334062" x="28233.485523"/>
     </g>
    </g>
    <path stroke="null" d="m8186.614365,6805.175212c-5.80608,17.19032 -14.70892,32.85328 -32.85329,32.85328s-31.831,-14.73774 -32.85328,-32.85328c-1.30634,-23.148 14.29036,-32.94917 32.85328,-32.85329c21.92909,0.11327 39.7437,12.45255 32.85329,32.85329z" fill="#2f2e41" id="svg_301"/>
    <rect stroke="null" x="8126.656325" y="6800.804772" width="53.73724" height="78.31352" fill="#2f2e41" id="svg_300"/>
    <polygon stroke="null" points="8110.984375,6967.494155406952 8113.71484375,6987.967299938202 8177.1806640625,6983.872085094452 8173.7685546875,6965.446303844452 8110.984375,6967.494155406952 " fill="#a0616a" id="svg_299"/>
    <path stroke="null" d="m8141.012745,6846.702582s8.18923,22.52039 -7.50679,25.93257s2.72974,18.42577 2.72974,18.42577l24.5677,-1.36487l17.0609,-4.777l5.45949,-9.55411s-21.15552,-10.919 -15.01359,-27.97988l-27.29745,-0.68248z" fill="#a0616a" id="svg_298"/>
    <path stroke="null" d="m8141.012745,6846.702582s8.18923,22.52039 -7.50679,25.93257s2.72974,18.42577 2.72974,18.42577l24.5677,-1.36487l17.0609,-4.777l5.45949,-9.55411s-21.15552,-10.919 -15.01359,-27.97988l-27.29745,-0.68248z" opacity="0.1" id="svg_297"/>
    <path stroke="null" d="m8188.195001,6936.101702l1.36487,51.86514a49.00227,49.00227 0 0 0 14.33116,17.06091c9.55415,6.82437 36.16915,16.37846 36.16915,16.37846s24.5677,30.02719 27.97988,9.55411s-21.15552,-23.20283 -21.15552,-23.20283s-30.70962,-24.5677 -32.75693,-29.34475s-4.09462,-34.80424 -3.41218,-41.6286s-22.52043,-0.68244 -22.52043,-0.68244z" fill="#a0616a" id="svg_296"/>
    <path stroke="null" d="m8099.384145,6931.324652l-4.77705,45.04078l-55.95976,51.86514s-37.534,23.20283 -17.0609,27.97988s30.02719,-19.10821 30.02719,-19.10821l60.73683,-40.94612s2.72974,-60.05438 0,-62.78412s-12.96631,-2.04735 -12.96631,-2.04735z" fill="#a0616a" id="svg_295"/>
    <path stroke="null" d="m8184.688655,6873.317582s-16.37846,9.55411 -32.75693,6.14193s-19.10821,-8.18924 -19.10821,-8.18924s-21.15552,3.41219 -23.20283,11.60142s0,20.47308 0,20.47308s-18.42577,19.79065 -2.72974,43.67591l3.41218,27.97988s46.40565,-6.82436 57.32463,0s14.33116,1.36487 14.33116,1.36487l7.50679,-33.43937l23.88527,-52.54757s0,-6.82437 -12.96629,-10.919s-15.69603,-6.14191 -15.69603,-6.14191z" fill="#9e2f2e" id="svg_294"/>
    <path stroke="null" d="m8205.812639,6884.236562l8.87167,6.82436s8.87167,48.453 1.36487,49.81783s-32.0745,4.77706 -32.0745,0s21.83796,-56.64219 21.83796,-56.64219z" fill="#9e2f2e" id="svg_293"/>
    <path stroke="null" d="m8115.731069,6880.141942l-4.77705,0s-16.37846,11.60142 -19.10821,24.5677s-10.23654,26.615 -4.09461,27.97988s24.56769,6.82436 27.29744,4.77705s0.68243,-57.32463 0.68243,-57.32463z" fill="#9e2f2e" id="svg_292"/>
    <path stroke="null" d="m8177.923865,6981.599753l-58.789608,-1.67683l-5.619669,-0.276452s-63.281714,92.150668 -51.833088,100.41396s14.050616,2.75443 16.65262,8.263286s156.638374,8.263307 156.638374,4.131648s-55.682082,-106.045548 -55.682082,-106.045548l-1.366547,-4.810064z" fill="#2f2e41" id="svg_291"/>
    <circle stroke="null" cx="8153.761075" cy="6766.270002" r="12.9684" fill="#2f2e41" id="svg_290"/>
    <path stroke="null" d="m8138.198995,6759.353522a12.96894,12.96894 0 0 1 11.67156,-12.90291c-0.42663,-0.04238 -0.859,-0.06549 -1.29684,-0.06549a12.9684,12.9684 0 1 0 0,25.9368c0.43782,0 0.87021,-0.02311 1.29684,-0.06548a12.969,12.969 0 0 1 -11.67156,-12.90292z" fill="#2f2e41" id="svg_289"/>
    <circle stroke="null" cx="8154.661465" cy="6831.688982" r="28.662319" fill="#a0616a" id="svg_288"/>
    <path stroke="null" d="m8144.221785,6796.098592s-0.27079,-1.50743 -10.86143,2.46406s-16.939,33.27935 -11.64368,50.48914c2.134,6.93548 0.398,11.936 -2.43531,15.43471c-10.63244,13.1294 -6.44689,32.8494 9.04007,39.601q0.65571,0.28586 1.33822,0.56516l6.61915,3.97149s-8.438,-11.10262 -4.2153,-25.30492a72.81679,72.81679 0 0 0 1.314,-37.27724c-0.48446,-2.07983 -1.03476,-4.22374 -1.65987,-6.41161c-5.29532,-18.53362 -2.7199,-16.39326 15.81372,-34.92689c0,0 10.59064,7.943 19.85745,11.91447s17.20979,7.943 10.59064,21.18129s-22.50511,25.15277 -11.91447,42.36256s11.91447,10.59064 10.59064,17.20979l0,0l-1.32383,6.61915l7.943,-7.943l-5.29533,10.59065s17.20979,0 22.50511,-13.2383l2.64766,2.64766s10.59064,-18.53362 -9.26681,-35.74341c0,0 -6.61915,-3.97149 2.64766,-17.20979s2.14979,-41.70065 -9.76468,-46.996s-42.52661,0.00003 -42.52661,0.00003z" fill="#2f2e41" id="svg_287"/>
   </g>
  </g>
  <polygon id="svg_24" opacity="0.1" points="510.8628845214844,432.9242379665375 516.2528686523438,430.3842599391937 516.2528686523438,442.2842843532562 511.00286865234375,444.0342843532562 510.8628845214844,432.9242379665375 "/>
  <polygon id="svg_25" opacity="0.1" points="620.1528930664062,389.4542672634125 620.1528930664062,407.6442697048187 615.2628784179688,409.2842843532562 608.2728881835938,411.604291677475 608.2628784179688,403.09428191185 615.2628784179688,390.854291677475 620.1528930664062,389.4542672634125 "/>
  <polygon id="svg_26" fill="#d48a9b" points="620.1528930664062,354.4642770290375 620.1528930664062,404.84428191185 511.00286865234375,441.2342355251312 510.3028564453125,387.354291677475 620.1528930664062,354.4642770290375 "/>
  <polygon id="svg_27" fill="#efc6cd" points="6.502864360809326,350.9642770290375 149.95286560058594,323.6842782497406 620.1528930664062,354.4642770290375 510.3028564453125,387.354291677475 6.502864360809326,350.9642770290375 "/>
  <polygon id="svg_28" opacity="0.1" points="21.552867889404297,396.104291677475 21.602855682373047,401.9542672634125 15.662853240966797,401.4342782497406 7.942866802215576,400.7742745876312 7.902873516082764,396.104291677475 21.552867889404297,396.104291677475 "/>
  <polygon id="svg_29" opacity="0.1" points="155.95286560058594,413.49427580833435 151.41285705566406,413.104291677475 145.05287170410156,412.5642831325531 145.05287170410156,404.6842782497406 151.3428497314453,406.59428191185 155.8928680419922,406.59428191185 155.95286560058594,413.49427580833435 "/>
  <polygon id="svg_30" fill="#d48a9b" points="6.502864360809326,350.9642770290375 6.502864360809326,397.854291677475 511.00286865234375,441.2342355251312 510.3028564453125,387.354291677475 6.502864360809326,350.9642770290375 "/>
  <polygon id="svg_31" fill="#d48a9b" points="406.5129089355469,406.7142770290375 340.62286376953125,406.7142770290375 340.62286376953125,382.8042733669281 406.5129089355469,387.4442880153656 406.5129089355469,406.7142770290375 "/>
  <polygon id="svg_33" opacity="0.1" points="252.1028594970703,377.5642831325531 252.1028594970703,415.34428191185 505.0528564453125,434.584272146225 505.0528564453125,394.354291677475 406.3929138183594,388.75428557395935 396.5929260253906,397.50428557395935 356.3628845214844,394.7042672634125 342.0228576660156,384.2042672634125 252.1028594970703,377.5642831325531 "/>
  <polygon id="svg_35" fill="#d48a9b" points="94.67285919189453,366.0142648220062 154.4928741455078,370.2142770290375 153.79286193847656,389.2242867946625 114.73285675048828,389.2242867946625 88.60285186767578,378.9542672634125 94.67285919189453,366.0142648220062 "/>
  <polygon id="svg_37" opacity="0.1" points="14.902873039245605,360.7642648220062 14.902873039245605,394.7042672634125 244.41285705566406,412.8942697048187 244.41285705566406,376.854291677475 155.8928680419922,371.61427092552185 146.45286560058594,378.604291677475 110.76285552978516,376.5142648220062 96.0728530883789,367.4142892360687 14.902873039245605,360.7642648220062 "/>
  <polygon id="svg_40" opacity="0.1" points="505.0828857421875,359.49427580833435 537.2528686523438,361.604291677475 483.9429016113281,377.5642831325531 456.7929382324219,375.59428191185 505.0828857421875,359.49427580833435 "/>
  <polygon id="svg_41" fill="#fff" points="505.0828857421875,358.09428191185 537.2528686523438,360.2042672634125 483.9429016113281,376.1542794704437 456.7929382324219,374.1942880153656 505.0828857421875,358.09428191185 "/>
  <path id="svg_42" fill="#d3dae1" d="m501.232859,361.70428c1.27,-0.54 2.62,0.48 4,0.74c0.77,0.15 1.57,0 2.34,0.15c1.58,0.21 3.15,1.27 4.65,0.73"/>
  <path id="svg_43" fill="#d3dae1" d="m499.572859,362.67428c1.26,-0.55 2.62,0.47 4,0.73c0.77,0.15 1.57,0 2.35,0.15c1.58,0.21 3.14,1.27 4.64,0.73"/>
  <path id="svg_44" fill="#d3dae1" d="m495.772859,364.59428c1.27,-0.54 2.63,0.48 4,0.74c0.77,0.15 1.57,0 2.35,0.15c1.58,0.21 3.14,1.27 4.64,0.73"/>
  <polygon id="svg_106" opacity="0.1" points="290.94287109375,349.59428191185 342.0528564453125,352.9442880153656 331.1628723144531,368.59428191185 274.9728698730469,362.59428191185 290.94287109375,349.59428191185 "/>
  <polygon id="svg_107" fill="#3a3768" points="289.94287109375,348.59428191185 341.0528564453125,351.9442880153656 330.1628723144531,367.59428191185 273.9728698730469,361.59428191185 289.94287109375,348.59428191185 "/>
  <polygon id="svg_108" fill="#d5e1f4" points="292.2028503417969,349.75428557395935 336.77288818359375,352.4742867946625 327.2828674316406,365.2242867946625 278.2728576660156,360.334272146225 292.2028503417969,349.75428557395935 "/>
 </g>
</svg>